<?xml version="1.0" encoding="utf-8"?>
<svg width="16" height="16" fill="#fff" class="bi bi-box-arrow-up-right" viewBox="0 0 16 16" xmlns="http://www.w3.org/2000/svg">
  <path fill-rule="evenodd" d="M 8.636 2.5 C 8.636 2.224 8.412 2 8.136 2 L 1.5 2 C 0.672 2 0 2.672 0 3.5 L 0 13.5 C 0 14.328 0.672 15 1.5 15 L 11.5 15 C 12.328 15 13 14.328 13 13.5 L 13 6.864 C 13 6.479 12.583 6.239 12.25 6.431 C 12.095 6.52 12 6.685 12 6.864 L 12 13.5 C 12 13.776 11.776 14 11.5 14 L 1.5 14 C 1.224 14 1 13.776 1 13.5 L 1 3.5 C 1 3.224 1.224 3 1.5 3 L 8.136 3 C 8.412 3 8.636 2.776 8.636 2.5 Z"/>
  <path fill-rule="evenodd" d="M16 .5a.5.5 0 0 0-.5-.5h-5a.5.5 0 0 0 0 1h3.793L6.146 9.146a.5.5 0 1 0 .708.708L15 1.707V5.5a.5.5 0 0 0 1 0v-5z"/>
</svg>